:SAMPLES-PER-SECOND 30
:FULLY-SPECIFIED
:DEGREES
184
root  7.95516 41.377 5.18579 -12.3212 -76.2164 9.89851
RightUpLeg  -22.2135 -1.45764 -0.427101
RightLeg  48.085 -14.9085 -17.4522
RightFoot  35.1854 -2.34147 6.07754
RightToes  -5.28226e-011 1.30204e-014 -6.03759e-014
Spine  12.9458 -4.66797 -11.806
Spine1  2.77168 -8.52751 11.7564
HEad  -18.1683 4.18413 -2.61822
LeftShoulder1  0.0437565 4.31286 16.4283
LeftArm  -52.8728 -62.0481 -31.1647
LeftForeArm  26.1981 -57.801 -15.4756
LeftHand  -0.0159594 5.32774 29.1556
RightShoulder  1.49126 4.43828 11.685
RightArm  21.0552 -24.8934 45.3746
RightForeArm  68.4601 75.546 36.0655
RightHand  0.0046295 -6.72959 -3.31529
LeftUpLeg  -5.14204 5.27262 1.20771
LeftLeg  10.006 1.41213 2.24755
LeftFoot  13.0505 2.81402 -13.334
LeftToes  -2.42178e-010 -1.66495e-011 -2.88221e-011
185
root  7.65597 41.2903 5.41972 -16.9903 -77.7676 15.7112
RightUpLeg  -17.8405 -1.70708 -1.80976
RightLeg  42.1031 -13.2961 -12.8135
RightFoot  25.9955 -3.53245 11.1593
RightToes  -5.28226e-011 1.30204e-014 -6.03759e-014
Spine  10.669 -4.55447 -9.57042
Spine1  1.28659 -7.14906 8.16794
HEad  -13.9527 2.72659 -2.72645
LeftShoulder1  0.0522158 4.44449 15.8314
LeftArm  -40.4331 -57.138 -42.624
LeftForeArm  26.4163 -57.948 -15.7445
LeftHand  0.0348012 5.54026 26.2898
RightShoulder  1.2303 3.73839 9.68658
RightArm  19.2505 -26.3715 46.8658
RightForeArm  75.0743 77.4305 43.3223
RightHand  -0.0152876 -5.77175 -3.90958
LeftUpLeg  -4.19259 5.99519 0.801471
LeftLeg  8.21499 3.08879 0.980109
LeftFoot  11.3649 2.60055 -13.2809
LeftToes  -2.42178e-010 -1.66495e-011 -2.88221e-011
186
root  7.53377 40.8053 5.64717 -23.6375 -79.9581 23.3938
RightUpLeg  -16.7986 -2.96245 -3.87921
RightLeg  41.4774 -5.69059 -5.54494
RightFoot  13.8169 -3.67475 16.63
RightToes  -5.28226e-011 1.30204e-014 -6.03759e-014
Spine  10.2205 -3.32436 -7.5849
Spine1  -1.94029 -5.05372 5.7934
HEad  -10.0416 1.55389 -3.91644
LeftShoulder1  -0.0212304 2.0683 12.2666
LeftArm  -30.1602 -46.332 -51.0187
LeftForeArm  32.9218 -63.7249 -20.0132
LeftHand  0.0464475 5.60601 25.045
RightShoulder  1.03452 2.67865 9.44108
RightArm  17.7933 -27.7027 44.5421
RightForeArm  94.7388 80.2974 64.5684
RightHand  -0.0346254 -5.16227 -5.71323
LeftUpLeg  -5.15922 6.75192 0.511228
LeftLeg  10.3777 3.51928 0.0483292
LeftFoot  6.21107 2.2286 -14.6569
LeftToes  -2.42178e-010 -1.66495e-011 -2.88221e-011
187
root  7.63366 40.1383 5.95326 -43.4533 -83.7603 43.6174
RightUpLeg  -18.3508 -3.07546 -5.83674
RightLeg  44.2968 -0.295664 -0.653637
RightFoot  6.12726 -2.57382 16.8084
RightToes  -5.28226e-011 1.30204e-014 -6.03759e-014
Spine  10.8175 -1.65359 -4.22215
Spine1  -2.89687 -2.65215 2.62196
HEad  -10.6163 1.75989 -6.27937
LeftShoulder1  0.139732 0.168903 4.60794
LeftArm  -26.0863 -33.8663 -49.2763
LeftForeArm  44.8989 -70.3857 -27.2644
LeftHand  0.185612 6.29156 24.0865
RightShoulder  0.868125 1.26741 11.08
RightArm  15.1411 -25.3936 41.291
RightForeArm  121.315 81.2638 92.3546
RightHand  -0.0523475 -4.9675 -9.04687
LeftUpLeg  -7.12565 6.99633 -0.00341914
LeftLeg  15.2908 6.93071 1.54014
LeftFoot  -0.442546 1.41762 -14.5619
LeftToes  -2.42178e-010 -1.66495e-011 -2.88221e-011
188
root  7.7863 39.5164 6.2811 -101.37 -86.0837 101.223
RightUpLeg  -20.0491 -1.57966 -7.51679
RightLeg  46.0979 -0.95706 -1.37479
RightFoot  2.50495 -1.60677 13.3039
RightToes  -5.28226e-011 1.30204e-014 -6.03759e-014
Spine  11.2315 -0.735251 0.430612
Spine1  -0.0691439 -0.61137 -2.52656
HEad  -16.3712 3.66106 -8.68017
LeftShoulder1  0.403467 0.173217 -4.37628
LeftArm  -26.3589 -22.3078 -41.9946
LeftForeArm  53.0613 -72.8576 -30.9991
LeftHand  0.663934 9.16532 21.0507
RightShoulder  0.854043 0.696572 13.3903
RightArm  10.2655 -20.1021 41.802
RightForeArm  116.481 81.119 89.4811
RightHand  -0.0399557 -5.19589 -14.1143
LeftUpLeg  -8.43841 7.62099 -0.979013
LeftLeg  20.436 13.643 5.36404
LeftFoot  -6.37831 0.538394 -11.4645
LeftToes  -2.42178e-010 -1.66495e-011 -2.88221e-011
189
root  7.87661 39.0407 6.38182 -149.63 -82.1659 149.053
RightUpLeg  -20.0734 0.98601 -9.36798
RightLeg  44.7296 -3.85683 -4.3665
RightFoot  -1.36005 -0.918493 10.4445
RightToes  -5.28226e-011 1.30204e-014 -6.03759e-014
Spine  11.3665 -0.824542 3.57486
Spine1  2.89553 0.649608 -7.66731
HEad  -22.5815 6.26013 -9.74634
LeftShoulder1  0.497043 0.60377 -9.68671
LeftArm  -28.9248 -11.9611 -37.1636
LeftForeArm  45.8872 -67.1764 -22.7932
LeftHand  0.832698 11.9752 15.0218
RightShoulder  1.01148 1.18523 14.8053
RightArm  5.37887 -15.8905 46.9315
RightForeArm  76.86 78.5389 52.3751
RightHand  0.0067846 -5.49438 -19.8141
LeftUpLeg  -9.58585 12.3799 -1.85235
LeftLeg  24.9909 14.681 7.20618
LeftFoot  -9.72746 0.183361 -10.1855
LeftToes  -2.42178e-010 -1.66495e-011 -2.88221e-011
190
root  7.93492 38.7894 6.12533 -151.395 -78.7227 150.848
RightUpLeg  -18.4141 4.18042 -10.6061
RightLeg  40.8693 -4.92586 -4.85401
RightFoot  -6.26855 -0.483088 10.0244
RightToes  -5.28226e-011 1.30204e-014 -6.03759e-014
Spine  11.5598 -1.19756 4.12593
Spine1  2.7475 0.98598 -10.4578
HEad  -24.439 7.95836 -9.03108
LeftShoulder1  0.616378 0.0214556 -10.4525
LeftArm  -31.2696 -4.7216 -36.8466
LeftForeArm  32.9864 -54.3735 -12.9013
LeftHand  0.438328 11.821 8.56431
RightShoulder  1.158 1.69262 15.5856
RightArm  2.62912 -14.8253 53.0616
RightForeArm  48.1725 69.7021 25.6343
RightHand  0.0368436 -5.59202 -23.7512
LeftUpLeg  -12.0564 20.491 -1.07969
LeftLeg  30.0596 5.43524 3.67641
LeftFoot  -9.02602 0.425475 -16.2231
LeftToes  -2.42178e-010 -1.66495e-011 -2.88221e-011
